<?xml version="1.0" encoding="utf-8"?>
<svg xmlns="http://www.w3.org/2000/svg" viewBox="201.791 174.298 86.479 113.504" width="86.479px" height="113.504px"><path fill-rule="evenodd" clip-rule="evenodd" d="M 277.46 212.133 L 272.055 212.133 L 272.055 201.323 C 272.055 193.848 269.423 187.47 264.153 182.2 C 258.884 176.93 252.506 174.298 245.031 174.298 C 237.556 174.298 231.178 176.93 225.908 182.2 C 220.638 187.47 218.006 193.848 218.006 201.323 L 218.006 212.133 L 212.601 212.133 C 209.628 212.133 207.082 213.192 204.964 215.311 C 202.85 217.424 201.791 219.97 201.791 222.943 L 201.791 276.992 C 201.791 279.965 202.85 282.511 204.964 284.63 C 207.082 286.743 209.628 287.802 212.601 287.802 L 277.46 287.802 C 280.433 287.802 282.979 286.743 285.098 284.63 C 287.211 282.511 288.27 279.965 288.27 276.992 L 288.27 222.943 C 288.27 219.97 287.211 217.424 285.098 215.311 C 282.979 213.192 280.433 212.133 277.46 212.133 Z M 228.816 201.323 C 228.816 196.821 230.394 192.989 233.545 189.837 C 236.696 186.686 240.528 185.108 245.031 185.108 C 249.533 185.108 253.365 186.686 256.516 189.837 C 259.667 192.989 261.245 196.821 261.245 201.323 L 261.245 212.133 L 228.816 212.133 L 228.816 201.323 Z M 232.545 249.13 C 232.545 259.118 243.355 265.355 252.003 260.361 C 256.018 258.048 258.488 253.762 258.488 249.13 C 258.488 239.141 247.679 232.904 239.031 237.898 C 235.015 240.211 232.545 244.498 232.545 249.13 Z" style="fill: rgb(255, 255, 255);" id="object-0" transform="matrix(1, 0, 0, 1, 0, 1.4210854715202004e-14)"/></svg>